<?xml version="1.0" encoding="UTF-8"?>
<!-- Generator: Adobe Illustrator 27.0.0, SVG Export Plug-In . SVG Version: 6.00 Build 0)  -->
<svg xmlns:svgjs="http://svgjs.dev/svgjs" xmlns="http://www.w3.org/2000/svg" xmlns:xlink="http://www.w3.org/1999/xlink" version="1.1" id="icon-0" x="0px" y="0px" viewBox="0 0 1000 202" style="enable-background:new 0 0 1000 202;" xml:space="preserve">
<style type="text/css">
	.st0{fill:#FFFFFF;}
	.st1{fill:#FFD836;}
	.st2{display:none;fill:none;}
</style>
<g transform="matrix(1,0,0,1,4.555278834744001,5.092784816332767)">
	<g id="tight-bounds" transform="matrix(1,0,0,1,0.2658183149650313,0.05252021563219955)">
		<g>
			<g transform="matrix(1,0,0,1,112.58091681269802,1.8087211799928369)">
				<g>
					<g>
						<g transform="matrix(1,0,0,1,0,0)">
							<path id="text-0" class="st0" d="M180.2,130.4l-6.8-26h-34.9l-6.8,26h-27.1L144.2,3.6h23.4l39.9,126.8H180.2z M155.9,37.9         L144,83.1h23.7L155.9,37.9z M242.2-3.4v47.8c5.3-6.7,11.9-10,19.7-10l0,0c8.6,0,15.1,3,19.6,9c4.5,6,6.7,15,6.8,27l0,0v59.9         h-24.7V70.8c0-5.5-0.9-9.5-2.6-12c-1.7-2.5-4.5-3.7-8.3-3.7l0,0c-4.5,0-8,2.1-10.5,6.2l0,0v69.1h-24.6V-3.4H242.2z          M347.6,105.2L347.6,105.2c0-2.1-1-4-3-5.8c-2-1.8-6.5-4.2-13.4-7.2l0,0c-10.2-4.1-17.1-8.4-20.9-12.8         c-3.8-4.4-5.7-9.9-5.7-16.4l0,0c0-8.3,3-15.1,8.9-20.4c6-5.4,13.9-8,23.7-8l0,0c10.3,0,18.6,2.7,24.8,8         c6.2,5.4,9.3,12.5,9.3,21.5l0,0h-24.6c0-7.7-3.2-11.5-9.6-11.5l0,0c-2.6,0-4.8,0.8-6.5,2.4c-1.7,1.6-2.5,3.9-2.5,6.8l0,0         c0,2.1,0.9,3.9,2.8,5.5c1.9,1.6,6.3,3.9,13.2,6.8l0,0c10,3.7,17.1,7.9,21.3,12.4c4.2,4.6,6.2,10.5,6.2,17.7l0,0         c0,8.4-3.2,15.2-9.5,20.3c-6.3,5.1-14.6,7.7-24.9,7.7l0,0c-6.9,0-13-1.4-18.3-4.1c-5.3-2.7-9.4-6.4-12.4-11.3         c-3-4.8-4.5-10-4.5-15.6l0,0h23.4c0.1,4.3,1.1,7.5,3,9.7c1.9,2.1,5,3.2,9.3,3.2l0,0C344.3,114.1,347.6,111.1,347.6,105.2z          M456.5,130.4h-24.8c-0.7-1.5-1.4-3.9-2.1-7.3l0,0c-4.4,6-10.4,9.1-17.9,9.1l0,0c-7.9,0-14.4-2.6-19.6-7.8         c-5.2-5.2-7.8-12-7.8-20.3l0,0c0-9.9,3.2-17.5,9.5-22.9s15.4-8.2,27.2-8.3l0,0h7.5v-7.6c0-4.2-0.7-7.2-2.2-9         c-1.5-1.7-3.6-2.6-6.3-2.6l0,0c-6.2,0-9.2,3.6-9.2,10.8l0,0h-24.6c0-8.7,3.3-15.9,9.8-21.5c6.5-5.7,14.8-8.5,24.8-8.5l0,0         c10.3,0,18.3,2.7,24,8c5.7,5.4,8.5,13.1,8.5,23l0,0v44.3c0.1,8.1,1.3,14.5,3.5,19l0,0V130.4z M417.1,112.8L417.1,112.8         c2.7,0,5.1-0.6,7-1.7c1.9-1.1,3.4-2.4,4.3-3.9l0,0V87.6h-5.9c-4.2,0-7.5,1.3-9.9,4c-2.4,2.7-3.6,6.2-3.6,10.7l0,0         C408.9,109.3,411.7,112.8,417.1,112.8z M470.2,36.2h23.2l0.7,9.3c5.6-7.4,12.9-11.1,21.9-11.1l0,0c16.2,0,24.5,11.3,25,34         l0,0v61.9h-24.8V70.3c0-5.3-0.8-9.2-2.4-11.6c-1.6-2.4-4.4-3.6-8.4-3.6l0,0c-4.5,0-8,2.3-10.5,6.9l0,0v68.5h-24.8V36.2z          M585.5,3.6v105.6h44.9v21.3h-70.6V3.6H585.5z M713.6,130.4h-24.8c-0.7-1.5-1.4-3.9-2.1-7.3l0,0c-4.4,6-10.4,9.1-17.9,9.1         l0,0c-7.9,0-14.4-2.6-19.7-7.8c-5.2-5.2-7.8-12-7.8-20.3l0,0c0-9.9,3.1-17.5,9.4-22.9c6.3-5.4,15.4-8.2,27.2-8.3l0,0h7.5         v-7.6c0-4.2-0.7-7.2-2.2-9c-1.5-1.7-3.6-2.6-6.3-2.6l0,0c-6.2,0-9.2,3.6-9.2,10.8l0,0H643c0-8.7,3.3-15.9,9.8-21.5         s14.8-8.5,24.8-8.5l0,0c10.3,0,18.3,2.7,24,8c5.7,5.4,8.5,13.1,8.5,23l0,0v44.3c0.1,8.1,1.3,14.5,3.5,19l0,0V130.4z          M674.2,112.8L674.2,112.8c2.7,0,5.1-0.6,7-1.7c1.9-1.1,3.3-2.4,4.2-3.9l0,0V87.6h-5.9c-4.2,0-7.5,1.3-9.9,4         c-2.4,2.7-3.6,6.2-3.6,10.7l0,0C666,109.3,668.7,112.8,674.2,112.8z M801.4,79.1v7.2c0,15.3-2.4,26.7-7.3,34.4         c-4.9,7.6-12.5,11.5-23,11.5l0,0c-8.2,0-14.7-3.7-19.7-11.1l0,0l-0.8,9.3h-22.7V-3.4h24.6v47.2c4.7-6.3,10.8-9.4,18.4-9.4         l0,0c10.4,0,18.1,3.8,23,11.3C798.8,53.4,801.3,64.5,801.4,79.1L801.4,79.1z M776.8,89.1v-9c0-9.9-1-16.6-2.9-20         c-1.9-3.4-5.3-5.1-10-5.1l0,0c-5.2,0-8.9,2.4-11.3,7.1l0,0v42.9c2.2,4.4,6.1,6.6,11.5,6.6l0,0c4.7,0,7.9-1.5,9.8-4.6         C775.7,104,776.6,98,776.8,89.1L776.8,89.1z M857.9,105.2L857.9,105.2c0-2.1-1-4-3-5.8c-2-1.8-6.5-4.2-13.4-7.2l0,0         c-10.2-4.1-17.1-8.4-20.9-12.8c-3.8-4.4-5.7-9.9-5.7-16.4l0,0c0-8.3,3-15.1,9-20.4c5.9-5.4,13.8-8,23.6-8l0,0         c10.3,0,18.6,2.7,24.8,8c6.2,5.4,9.3,12.5,9.3,21.5l0,0H857c0-7.7-3.2-11.5-9.6-11.5l0,0c-2.6,0-4.8,0.8-6.5,2.4         c-1.7,1.6-2.5,3.9-2.5,6.8l0,0c0,2.1,0.9,3.9,2.8,5.5c1.9,1.6,6.2,3.9,13.1,6.8l0,0c10.1,3.7,17.2,7.9,21.3,12.4         c4.2,4.6,6.2,10.5,6.2,17.7l0,0c0,8.4-3.2,15.2-9.5,20.3c-6.3,5.1-14.7,7.7-24.9,7.7l0,0c-6.9,0-13-1.4-18.3-4.1         c-5.3-2.7-9.4-6.4-12.4-11.3c-3-4.8-4.5-10-4.5-15.6l0,0h23.4c0.1,4.3,1.1,7.5,3,9.7c1.9,2.1,5,3.2,9.3,3.2l0,0         C854.6,114.1,857.9,111.1,857.9,105.2z"></path>
						</g>
					</g>
					<g transform="matrix(1,0,0,1,0,85.2248672342729)">
						<g transform="matrix(1,0,0,1,0,0)">
							<path id="text-1" class="st0" d="M113.9,106.2c-3.5,0-6.6-0.6-9.3-1.9l0,0v-4.4c2.8,1.5,5.9,2.2,9.3,2.2l0,0         c1.6,0,2.8-0.3,3.6-0.9c0.8-0.6,1.2-1.5,1.2-2.5l0,0c0-1-0.4-1.8-1.1-2.3c-0.7-0.5-1.8-1-3.3-1.4l0,0l-2.4-0.7         c-1.3-0.4-2.5-0.8-3.5-1.3c-1-0.5-1.8-1.3-2.5-2.3c-0.7-1-1-2.3-1-3.9l0,0c0-2.6,0.8-4.5,2.3-5.9c1.5-1.3,3.7-2,6.5-2l0,0         c1.7,0,3.2,0.2,4.4,0.5c1.3,0.3,2.6,0.8,3.9,1.4l0,0V85c-2.5-1.3-5.3-2-8.4-2l0,0c-2.7,0-4.1,1.1-4.1,3.4l0,0         c0,1,0.3,1.8,1,2.2c0.6,0.5,1.7,0.9,3.2,1.3l0,0l2.4,0.7c1.5,0.4,2.7,0.9,3.7,1.4c1,0.6,1.9,1.3,2.5,2.4c0.7,1,1,2.4,1,4l0,0         c0,2.4-0.9,4.3-2.6,5.7C119.1,105.5,116.8,106.2,113.9,106.2L113.9,106.2z M138.4,79.4c6.2,0,9.3,2.8,9.3,8.3l0,0         c0,2.7-0.8,4.7-2.3,6.1c-1.6,1.4-3.9,2.1-6.9,2.1l0,0h-5.1v9.7h-4.8V79.4H138.4z M142.8,87.6c0-1.4-0.4-2.5-1.1-3.1         c-0.7-0.6-1.8-1-3.3-1l0,0h-5.1v8.3h5.1c1.5,0,2.6-0.3,3.3-1C142.4,90.1,142.8,89,142.8,87.6L142.8,87.6z M156.7,101.7h12         v3.9h-16.8V79.4h16.6v3.9h-11.8v7.1h10.1v3.9h-10.1V101.7z M185.7,106.2c-4.4,0-7.7-1.2-10-3.7s-3.4-5.8-3.4-10l0,0         c0-2.6,0.5-4.9,1.5-7c1-2.1,2.5-3.7,4.5-4.9c2-1.2,4.4-1.8,7.3-1.8l0,0c1.2,0,2.3,0.1,3.3,0.3c1,0.2,2,0.5,3.1,1l0,0v4.3         c-1.9-0.9-4-1.4-6.3-1.4l0,0c-1.7,0-3.2,0.4-4.5,1.2c-1.3,0.8-2.3,2-3,3.4c-0.7,1.4-1.1,3.1-1.1,4.9l0,0c0,2.9,0.8,5.2,2.2,7         c1.5,1.7,3.6,2.6,6.2,2.6l0,0c1.2,0,2.3-0.2,3.4-0.5c1.1-0.3,2.3-0.8,3.5-1.5l0,0l1.5,4c-1.3,0.7-2.7,1.2-4.2,1.6         C188.4,106,187,106.2,185.7,106.2L185.7,106.2z M216.6,79.4v4.2H209v22h-4.8v-22h-7.5v-4.2H216.6z M236.2,105.6L230,95.4h-4         v10.3h-4.8V79.4h9.9c6.2,0,9.3,2.7,9.3,8l0,0c0,2-0.5,3.6-1.4,4.9c-0.9,1.3-2.3,2.1-4.1,2.6l0,0l6.6,10.7H236.2z M226,83.5         v7.7h5.1c2.9,0,4.4-1.3,4.4-3.9l0,0c0-1.3-0.4-2.3-1.1-2.9c-0.7-0.6-1.8-0.9-3.3-0.9l0,0H226z M264,105.6l-2.3-6.5h-10.5         l-2.3,6.5H244l9.5-26.5h5.8l9.5,26.5H264z M252.6,95h7.6l-3.8-10.7L252.6,95z M277.9,101.4h10.3v4.2h-15.1V79.4h4.8V101.4z          M297.5,101.4h10.3v4.2h-15.1V79.4h4.8V101.4z M333.3,79.4L324,95.5v10.1h-4.7V95.5l-9.3-16.1h4.8l6.8,12l6.8-12H333.3z          M349.8,101.7h12v3.9H345V79.4h16.6v3.9h-11.8v7.1h10.1v3.9h-10.1V101.7z M383.8,83.6h-11.8v7.3H382v4.2h-10.1v10.5h-4.8         V79.4h16.6V83.6z M405.1,83.6h-11.8v7.3h10.1v4.2h-10.1v10.5h-4.8V79.4h16.6V83.6z M409.8,105.6V79.4h4.8v26.2H409.8z          M432.7,106.2c-4.4,0-7.7-1.2-10-3.7s-3.4-5.8-3.4-10l0,0c0-2.6,0.5-4.9,1.5-7c1-2.1,2.5-3.7,4.5-4.9c2-1.2,4.4-1.8,7.3-1.8         l0,0c1.2,0,2.3,0.1,3.3,0.3c1,0.2,2,0.5,3.1,1l0,0v4.3c-1.9-0.9-4-1.4-6.3-1.4l0,0c-1.7,0-3.2,0.4-4.5,1.2         c-1.3,0.8-2.3,2-3,3.4c-0.7,1.4-1.1,3.1-1.1,4.9l0,0c0,2.9,0.8,5.2,2.2,7c1.5,1.7,3.6,2.6,6.2,2.6l0,0c1.2,0,2.3-0.2,3.4-0.5         c1.1-0.3,2.3-0.8,3.5-1.5l0,0l1.5,4c-1.3,0.7-2.7,1.2-4.2,1.6C435.5,106,434.1,106.2,432.7,106.2L432.7,106.2z M445.6,105.6         V79.4h4.8v26.2H445.6z M461.6,101.7h12v3.9h-16.8V79.4h16.6v3.9h-11.8v7.1h10.1v3.9h-10.1V101.7z M495.5,79.4h4.8v26.2h-5.4         l-11.2-18.4v18.4h-4.8V79.4h5.4l11.1,18.4V79.4z M524.7,79.4v4.2h-7.5v22h-4.8v-22h-7.5v-4.2H524.7z M548.6,106.2         c-4.4,0-7.7-1.2-10-3.7c-2.2-2.4-3.4-5.8-3.4-10l0,0c0-2.6,0.5-4.9,1.5-7c1-2.1,2.5-3.7,4.5-4.9c2-1.2,4.4-1.8,7.4-1.8l0,0         c1.2,0,2.3,0.1,3.3,0.3c1,0.2,2,0.5,3.1,1l0,0v4.3c-1.9-0.9-4-1.4-6.3-1.4l0,0c-1.7,0-3.2,0.4-4.5,1.2c-1.3,0.8-2.3,2-3,3.4         c-0.7,1.4-1.1,3.1-1.1,4.9l0,0c0,2.9,0.8,5.2,2.2,7c1.5,1.7,3.6,2.6,6.2,2.6l0,0c1.2,0,2.3-0.2,3.4-0.5         c1.1-0.3,2.3-0.8,3.5-1.5l0,0l1.5,4c-1.3,0.7-2.7,1.2-4.2,1.6C551.4,106,550,106.2,548.6,106.2L548.6,106.2z M572.9,106.2         c-2.8,0-5.2-0.6-7.1-1.8c-2-1.2-3.4-2.8-4.4-4.9c-1-2.1-1.5-4.4-1.5-7l0,0c0-2.6,0.5-4.9,1.5-6.9c1-2.1,2.4-3.7,4.4-4.9         c2-1.2,4.3-1.8,7.1-1.8l0,0c2.8,0,5.1,0.6,7.1,1.8c1.9,1.2,3.4,2.8,4.4,4.9c1,2.1,1.5,4.4,1.5,6.9l0,0c0,2.6-0.5,4.9-1.5,7         c-1,2.1-2.5,3.7-4.4,4.9C578,105.6,575.6,106.2,572.9,106.2L572.9,106.2z M572.9,102.1c1.7,0,3.1-0.4,4.3-1.2         c1.2-0.8,2.1-2,2.8-3.4c0.6-1.5,0.9-3.1,0.9-5l0,0c0-1.8-0.3-3.4-1-4.8c-0.6-1.4-1.6-2.5-2.8-3.4c-1.2-0.8-2.6-1.2-4.3-1.2         l0,0c-1.7,0-3.2,0.4-4.4,1.2c-1.2,0.8-2.1,2-2.7,3.4c-0.6,1.4-0.9,3.1-0.9,4.9l0,0c0,2.8,0.7,5.1,2.1,6.9         C568.3,101.2,570.3,102.1,572.9,102.1L572.9,102.1z M611.1,79.4h5.4v26.2h-4.8V86.4l-7,10h-2.5l-6.9-9.9v19.2h-4.8V79.4h5.5         l7.5,10.9L611.1,79.4z M643.4,79.4h5.4v26.2h-4.8V86.4l-7,10h-2.5l-6.9-9.9v19.2H623V79.4h5.5l7.5,10.9L643.4,79.4z          M665.9,106.2c-3.6,0-6.2-0.9-8-2.7c-1.8-1.8-2.7-4.3-2.7-7.6l0,0V79.4h4.8v16.5c0,4.1,2,6.2,5.9,6.2l0,0         c3.9,0,5.9-2.1,5.9-6.2l0,0V79.4h4.8v16.5c0,3.3-0.9,5.8-2.6,7.6C672.2,105.3,669.5,106.2,665.9,106.2L665.9,106.2z          M699.6,79.4h4.8v26.2H699l-11.2-18.4v18.4H683V79.4h5.4l11.1,18.4V79.4z M710.8,105.6V79.4h4.8v26.2H710.8z M733.8,106.2         c-4.4,0-7.7-1.2-10-3.7s-3.4-5.8-3.4-10l0,0c0-2.6,0.5-4.9,1.5-7c1-2.1,2.5-3.7,4.5-4.9c2-1.2,4.4-1.8,7.4-1.8l0,0         c1.2,0,2.3,0.1,3.3,0.3c1,0.2,2,0.5,3.1,1l0,0v4.3c-1.9-0.9-4-1.4-6.3-1.4l0,0c-1.7,0-3.2,0.4-4.5,1.2c-1.3,0.8-2.3,2-3,3.4         c-0.7,1.4-1.1,3.1-1.1,4.9l0,0c0,2.9,0.8,5.2,2.2,7s3.6,2.6,6.2,2.6l0,0c1.2,0,2.3-0.2,3.4-0.5c1.1-0.3,2.3-0.8,3.5-1.5l0,0         l1.5,4c-1.3,0.7-2.7,1.2-4.2,1.6C736.5,106,735.1,106.2,733.8,106.2L733.8,106.2z M764.4,105.6l-2.3-6.5h-10.5l-2.3,6.5h-4.8         l9.5-26.5h5.8l9.5,26.5H764.4z M753,95h7.6l-3.8-10.7L753,95z M791.5,79.4v4.2h-7.5v22h-4.8v-22h-7.5v-4.2H791.5z          M796.1,105.6V79.4h4.8v26.2H796.1z M818.7,106.2c-2.8,0-5.2-0.6-7.1-1.8c-1.9-1.2-3.4-2.8-4.4-4.9c-1-2.1-1.5-4.4-1.5-7l0,0         c0-2.6,0.5-4.9,1.5-6.9c1-2.1,2.5-3.7,4.4-4.9c2-1.2,4.3-1.8,7.1-1.8l0,0c2.8,0,5.1,0.6,7.1,1.8c2,1.2,3.4,2.8,4.4,4.9         c1,2.1,1.5,4.4,1.5,6.9l0,0c0,2.6-0.5,4.9-1.5,7c-1,2.1-2.5,3.7-4.4,4.9C823.8,105.6,821.5,106.2,818.7,106.2L818.7,106.2z          M818.7,102.1c1.7,0,3.1-0.4,4.3-1.2c1.2-0.8,2.1-2,2.8-3.4c0.6-1.5,1-3.1,1-5l0,0c0-1.8-0.3-3.4-1-4.8         c-0.6-1.4-1.6-2.5-2.8-3.4c-1.2-0.8-2.6-1.2-4.3-1.2l0,0c-1.7,0-3.2,0.4-4.4,1.2c-1.2,0.8-2.1,2-2.8,3.4         c-0.6,1.4-0.9,3.1-0.9,4.9l0,0c0,2.8,0.7,5.1,2.1,6.9C814.1,101.2,816.1,102.1,818.7,102.1L818.7,102.1z M853,79.4h4.8v26.2         h-5.4l-11.2-18.4v18.4h-4.8V79.4h5.4L853,97.8V79.4z M872.4,106.2c-3.5,0-6.6-0.6-9.3-1.9l0,0v-4.4c2.8,1.5,5.9,2.2,9.3,2.2         l0,0c1.6,0,2.8-0.3,3.6-0.9c0.8-0.6,1.2-1.5,1.2-2.5l0,0c0-1-0.4-1.8-1.1-2.3c-0.7-0.5-1.8-1-3.3-1.4l0,0l-2.4-0.7         c-1.3-0.4-2.5-0.8-3.5-1.3c-1-0.5-1.8-1.3-2.5-2.3c-0.7-1-1-2.3-1-3.9l0,0c0-2.6,0.8-4.5,2.3-5.9c1.5-1.3,3.7-2,6.5-2l0,0         c1.7,0,3.2,0.2,4.4,0.5c1.3,0.3,2.6,0.8,3.9,1.4l0,0V85c-2.5-1.3-5.3-2-8.4-2l0,0c-2.7,0-4.1,1.1-4.1,3.4l0,0         c0,1,0.3,1.8,1,2.2c0.6,0.5,1.7,0.9,3.2,1.3l0,0l2.4,0.7c1.5,0.4,2.7,0.9,3.7,1.4c1,0.6,1.9,1.3,2.5,2.4c0.7,1,1,2.4,1,4l0,0         c0,2.4-0.9,4.3-2.6,5.7C877.6,105.5,875.3,106.2,872.4,106.2L872.4,106.2z"></path>
						</g>
					</g>
				</g>
			</g>
			<g>
				<g>
					<path class="st1" d="M172.5,130.6c-7,0-12.6,5.6-12.6,12.6v41c0,7,5.6,12.6,12.6,12.6s12.6-5.6,12.6-12.6v-41       C185.1,136.2,179.5,130.6,172.5,130.6z"></path>
					<path class="st1" d="M122,130.6c-7,0-12.6,5.6-12.6,12.6v41c0,7,5.6,12.6,12.6,12.6c7,0,12.6-5.6,12.6-12.6v-41       C134.6,136.2,129,130.6,122,130.6z"></path>
					<path class="st1" d="M71.6,117.9c-7,0-12.6,5.6-12.6,12.6v53.6c0,7,5.6,12.6,12.6,12.6s12.6-5.6,12.6-12.6v-53.6       C84.2,123.6,78.5,117.9,71.6,117.9z"></path>
					<path class="st1" d="M21.1,95.9c-7,0-12.6,5.6-12.6,12.6v75.7c0,7,5.6,12.6,12.6,12.6s12.6-5.6,12.6-12.6v-75.7       C33.7,101.5,28,95.9,21.1,95.9z"></path>
					<path class="st1" d="M21.1,60.6v-21C58.6,82,112.7,106,169.3,105.3c7,0,12.6-5.6,12.6-12.6s-5.6-12.6-12.6-12.6       C91.9,80.1,49,34.2,37.7,20.1h24.4c7,0,12.6-5.6,12.7-12.6c0-0.4,0-0.9-0.1-1.3C73.9-0.3,68.2-5.2,61.5-5.1H21.1       C7.1-5.1-4.2,6.2-4.2,20.1v41c0,7,5.6,12.6,12.6,12.7c0.4,0,0.9,0,1.3-0.1C16.3,72.9,21.2,67.3,21.1,60.6z"></path>
				</g>
			</g>
		</g>
		<rect x="-4.2" y="-5.1" class="st2" width="998.7" height="201.9"></rect>
	</g>
</g>
</svg>
